<?xml version="1.0" encoding="utf-8"?>
<!-- Generator: Adobe Illustrator 25.2.3, SVG Export Plug-In . SVG Version: 6.00 Build 0)  -->
<svg version="1.1" id="Layer_1" xmlns="http://www.w3.org/2000/svg" xmlns:xlink="http://www.w3.org/1999/xlink" x="0px" y="0px"
	 width="52px" height="68px" viewBox="0 0 52 68" style="enable-background:new 0 0 52 68;" xml:space="preserve">
<style type="text/css">
	.st0{fill:#E5E7EB;}
	.st1{display:none;fill:#FFFFFF;stroke:#231F20;stroke-miterlimit:10;}
	.st2{fill:#003964;}
	.st3{fill:#619FCB;}
	.st4{fill:#9CA3AF;}
	.st5{fill:#D1D5DB;}
	.st6{fill:none;stroke:#D1D5DB;stroke-width:0.5;stroke-miterlimit:10;}
</style>
<path class="st0" d="M47,24H5c-0.6,0-1,0.4-1,1v4h44v-4C48,24.4,47.6,24,47,24z"/>
<rect x="-4" y="12" transform="matrix(-1.836970e-16 1 -1 -1.836970e-16 60 8)" class="st1" width="60" height="44"/>
<g id="UNC_LOGO" transform="translate(-34.902 -468.17)">
	<g id="Group_1" transform="translate(34.902 468.17)">
		<path id="Path_1" class="st2" d="M12.2,5.8c0,0.7,0.4,1.1,1.1,1.1c0.4,0,0.8-0.1,1-0.4l0.1-0.1v0.8l0,0c-0.3,0.2-0.7,0.3-1.2,0.3
			c-0.5,0-0.9-0.2-1.3-0.5c-0.4-0.3-0.5-0.8-0.5-1.3s0.2-1,0.5-1.3C12.3,4.2,12.7,4,13.2,4c0.4,0,0.9,0.1,1.2,0.3l0,0v0.8L14.3,5
			c-0.3-0.3-0.7-0.4-1-0.4C12.6,4.6,12.2,5.1,12.2,5.8z M10.8,5.6L10.8,5.6V4.1h-0.7V5C9.9,4.8,9,4.1,7.8,4.1v0.6c1.4,0,2.4,1,3,1.8
			L10.8,5.6z"/>
		<path id="Path_2" class="st3" d="M5.2,10V9.3H4.4V10H4.1V8.5h0.3v0.6h0.7V8.5h0.3V10H5.2z M6.1,10V8.5h1v0.2H6.4v0.4H7v0.2H6.4
			v0.4h0.7l0,0.2L6.1,10z M8.9,10L8.8,9.6H8.2L8,10H7.7l0.6-1.5h0.2L9.2,10H8.9z M8.5,8.9L8.2,9.4h0.4L8.5,8.9z M9.8,10V8.5h0.3v1.3
			h0.7l0,0.2H9.8z M11.8,8.7V10h-0.3V8.7H11V8.5h1.3v0.2H11.8z M14,10V9.3h-0.7V10h-0.3V8.5h0.3v0.6H14V8.5h0.3V10L14,10z M6.4,4.1
			v1.8c0,0.7-0.3,1-0.8,1s-0.8-0.3-0.8-1V4.1H4v1.8c0,1,0.6,1.7,1.6,1.7c1,0,1.6-0.6,1.6-1.7V4.1H6.4z M7.8,7.5h0.7V6
			c0,0,0.9,0.2,1.6,1.5h0.7c0,0-1.1-2.2-3-2.2L7.8,7.5z"/>
	</g>
	<path id="Path_3" class="st3" d="M49.6,478.2c0,0-0.1,0-0.1,0L49.6,478.2C49.6,478.1,49.6,478.1,49.6,478.2
		C49.7,478.1,49.7,478.1,49.6,478.2c0.1-0.1,0-0.1,0-0.1c-0.1,0-0.1-0.1-0.1-0.1c0-0.1,0-0.1,0.1-0.1c0,0,0.1,0,0.1,0l0,0
		c0,0-0.1,0-0.1,0c0,0-0.1,0-0.1,0c0,0,0,0,0.1,0c0.1,0,0.1,0.1,0.1,0.1C49.7,478.1,49.7,478.2,49.6,478.2z M50.1,478.2V478
		c0,0,0,0,0,0l0,0L50.1,478.2H50l-0.1-0.2c0,0,0,0,0,0c0,0,0,0,0,0v0.2h-0.1v-0.3h0.1l0.1,0.2l0.1-0.2h0.1L50.1,478.2L50.1,478.2z"
		/>
</g>
<g>
	<g>
		<path class="st4" d="M18.2,16.5c0.2,0,0.3-0.1,0.3-0.2c0,0,0-0.1,0-0.1c0,0,0-0.1-0.1-0.1c0,0-0.1,0-0.1-0.1c0,0-0.1,0-0.1,0
			c-0.1,0-0.1,0-0.1-0.1c0,0-0.1,0-0.1-0.1c0,0-0.1-0.1-0.1-0.1c0,0,0-0.1,0-0.2c0-0.1,0-0.2,0.1-0.3c0.1-0.1,0.2-0.1,0.4-0.1
			c0.1,0,0.2,0,0.2,0c0.1,0,0.1,0,0.2,0.1l-0.1,0.2c0,0-0.1,0-0.1-0.1c-0.1,0-0.1,0-0.2,0c0,0-0.1,0-0.1,0c0,0-0.1,0-0.1,0
			c0,0,0,0-0.1,0.1c0,0,0,0.1,0,0.1c0,0,0,0.1,0,0.1c0,0,0,0,0.1,0.1c0,0,0.1,0,0.1,0.1c0,0,0.1,0,0.1,0c0.1,0,0.1,0,0.2,0.1
			c0.1,0,0.1,0.1,0.1,0.1s0.1,0.1,0.1,0.1c0,0,0,0.1,0,0.2c0,0.1,0,0.2-0.1,0.3s-0.2,0.1-0.4,0.1c-0.1,0-0.1,0-0.2,0
			c0,0-0.1,0-0.1,0c0,0-0.1,0-0.1,0c0,0,0,0-0.1,0l0.1-0.2c0,0,0.1,0,0.1,0.1S18.1,16.5,18.2,16.5z"/>
		<path class="st4" d="M19.3,16.6c-0.1,0-0.2,0-0.3-0.1c-0.1,0-0.1-0.1-0.1-0.2V15l0.2,0v1.3c0,0,0,0.1,0,0.1c0,0,0,0,0,0
			c0,0,0,0,0,0c0,0,0,0,0.1,0L19.3,16.6z"/>
		<path class="st4" d="M19.6,15.3C19.6,15.3,19.5,15.3,19.6,15.3c-0.1-0.1-0.1-0.1-0.1-0.1c0,0,0-0.1,0-0.1c0,0,0.1,0,0.1,0
			c0,0,0.1,0,0.1,0c0,0,0,0.1,0,0.1C19.7,15.2,19.7,15.3,19.6,15.3C19.7,15.3,19.6,15.3,19.6,15.3z M19.7,16.6h-0.2v-1.1h0.2V16.6z"
			/>
		<path class="st4" d="M20.7,15l0.2,0v1.6c0,0-0.1,0-0.2,0c-0.1,0-0.1,0-0.2,0c-0.1,0-0.2,0-0.2,0c-0.1,0-0.1-0.1-0.2-0.1
			c0,0-0.1-0.1-0.1-0.2c0-0.1,0-0.1,0-0.2c0-0.1,0-0.2,0-0.2c0-0.1,0.1-0.1,0.1-0.2c0,0,0.1-0.1,0.2-0.1c0.1,0,0.1,0,0.2,0
			c0.1,0,0.1,0,0.2,0c0,0,0.1,0,0.1,0V15z M20.7,15.8c0,0-0.1,0-0.1-0.1c0,0-0.1,0-0.1,0c-0.1,0-0.1,0-0.1,0s-0.1,0-0.1,0.1
			c0,0,0,0.1-0.1,0.1c0,0,0,0.1,0,0.2c0,0.1,0,0.2,0.1,0.3c0.1,0.1,0.1,0.1,0.2,0.1c0.1,0,0.1,0,0.1,0c0,0,0.1,0,0.1,0V15.8z"/>
		<path class="st4" d="M21.2,16.1c0-0.1,0-0.2,0-0.3c0-0.1,0.1-0.1,0.1-0.2c0,0,0.1-0.1,0.2-0.1c0.1,0,0.1,0,0.2,0
			c0.1,0,0.3,0,0.3,0.1c0.1,0.1,0.1,0.2,0.1,0.4c0,0,0,0,0,0c0,0,0,0,0,0h-0.7c0,0.1,0,0.2,0.1,0.3c0.1,0.1,0.1,0.1,0.3,0.1
			c0.1,0,0.1,0,0.2,0c0,0,0.1,0,0.1,0l0,0.2c0,0-0.1,0-0.1,0c-0.1,0-0.1,0-0.2,0c-0.1,0-0.2,0-0.2,0c-0.1,0-0.1-0.1-0.2-0.1
			c0,0-0.1-0.1-0.1-0.2C21.2,16.2,21.2,16.2,21.2,16.1z M21.9,16c0-0.1,0-0.2-0.1-0.2c0-0.1-0.1-0.1-0.2-0.1c0,0-0.1,0-0.1,0
			c0,0-0.1,0-0.1,0.1c0,0,0,0.1-0.1,0.1c0,0,0,0.1,0,0.1H21.9z"/>
		<path class="st4" d="M23.1,15l0.2,0v1.6c0,0-0.1,0-0.2,0c-0.1,0-0.1,0-0.2,0c-0.1,0-0.2,0-0.2,0c-0.1,0-0.1-0.1-0.2-0.1
			c0,0-0.1-0.1-0.1-0.2c0-0.1,0-0.1,0-0.2c0-0.1,0-0.2,0-0.2c0-0.1,0.1-0.1,0.1-0.2c0,0,0.1-0.1,0.2-0.1c0.1,0,0.1,0,0.2,0
			c0.1,0,0.1,0,0.2,0c0,0,0.1,0,0.1,0V15z M23.1,15.8c0,0-0.1,0-0.1-0.1c0,0-0.1,0-0.1,0c-0.1,0-0.1,0-0.1,0s-0.1,0-0.1,0.1
			c0,0,0,0.1-0.1,0.1c0,0,0,0.1,0,0.2c0,0.1,0,0.2,0.1,0.3c0.1,0.1,0.1,0.1,0.2,0.1c0.1,0,0.1,0,0.1,0c0,0,0.1,0,0.1,0V15.8z"/>
		<path class="st4" d="M23.6,16.1c0-0.1,0-0.2,0-0.3c0-0.1,0.1-0.1,0.1-0.2c0,0,0.1-0.1,0.2-0.1c0.1,0,0.1,0,0.2,0
			c0.1,0,0.3,0,0.3,0.1c0.1,0.1,0.1,0.2,0.1,0.4c0,0,0,0,0,0c0,0,0,0,0,0h-0.7c0,0.1,0,0.2,0.1,0.3c0.1,0.1,0.1,0.1,0.3,0.1
			c0.1,0,0.1,0,0.2,0c0,0,0.1,0,0.1,0l0,0.2c0,0-0.1,0-0.1,0c-0.1,0-0.1,0-0.2,0c-0.1,0-0.2,0-0.2,0c-0.1,0-0.1-0.1-0.2-0.1
			c0,0-0.1-0.1-0.1-0.2C23.6,16.2,23.6,16.2,23.6,16.1z M24.3,16c0-0.1,0-0.2-0.1-0.2c0-0.1-0.1-0.1-0.2-0.1c0,0-0.1,0-0.1,0
			c0,0-0.1,0-0.1,0.1c0,0,0,0.1-0.1,0.1c0,0,0,0.1,0,0.1H24.3z"/>
		<path class="st4" d="M25.3,16.6c-0.1,0-0.2,0-0.2,0c-0.1,0-0.1-0.1-0.2-0.1c0,0-0.1-0.1-0.1-0.2c0-0.1,0-0.1,0-0.2
			c0-0.1,0-0.2,0-0.2c0-0.1,0.1-0.1,0.1-0.2s0.1-0.1,0.2-0.1c0.1,0,0.1,0,0.2,0c0,0,0.1,0,0.1,0s0.1,0,0.1,0l0,0.2c0,0-0.1,0-0.1,0
			c0,0-0.1,0-0.1,0c-0.1,0-0.2,0-0.2,0.1c-0.1,0.1-0.1,0.2-0.1,0.3c0,0.1,0,0.1,0,0.2c0,0,0,0.1,0.1,0.1c0,0,0.1,0.1,0.1,0.1
			c0,0,0.1,0,0.2,0c0.1,0,0.1,0,0.1,0c0,0,0.1,0,0.1,0l0,0.2c0,0,0,0,0,0c0,0,0,0-0.1,0C25.4,16.6,25.4,16.6,25.3,16.6
			C25.3,16.6,25.3,16.6,25.3,16.6z"/>
		<path class="st4" d="M26.2,16c0,0,0.1,0.1,0.1,0.1c0,0,0.1,0.1,0.1,0.2c0,0.1,0.1,0.1,0.1,0.2c0,0.1,0.1,0.1,0.1,0.2h-0.2
			c0,0-0.1-0.1-0.1-0.1c0-0.1-0.1-0.1-0.1-0.1c0,0-0.1-0.1-0.1-0.1c0,0-0.1-0.1-0.1-0.1v0.5h-0.2V15l0.2,0v1c0,0,0.1-0.1,0.1-0.1
			c0,0,0.1-0.1,0.1-0.1s0.1-0.1,0.1-0.1c0,0,0.1-0.1,0.1-0.1h0.2c0,0-0.1,0.1-0.1,0.1c0,0-0.1,0.1-0.1,0.1c0,0-0.1,0.1-0.1,0.1
			C26.2,15.9,26.2,16,26.2,16z"/>
		<path class="st4" d="M28.2,16.4v0.2h-0.9v-1.4h0.2v1.3H28.2z"/>
		<path class="st4" d="M29.3,16.1c0,0.1,0,0.2,0,0.2c0,0.1-0.1,0.1-0.1,0.2c0,0-0.1,0.1-0.2,0.1c-0.1,0-0.1,0-0.2,0
			c-0.1,0-0.1,0-0.2,0c-0.1,0-0.1-0.1-0.2-0.1c0,0-0.1-0.1-0.1-0.2c0-0.1,0-0.1,0-0.2c0-0.1,0-0.2,0-0.2c0-0.1,0.1-0.1,0.1-0.2
			c0,0,0.1-0.1,0.2-0.1c0.1,0,0.1,0,0.2,0c0.1,0,0.1,0,0.2,0c0.1,0,0.1,0.1,0.2,0.1c0,0,0.1,0.1,0.1,0.2
			C29.3,15.9,29.3,16,29.3,16.1z M29.1,16.1c0-0.1,0-0.2-0.1-0.3s-0.1-0.1-0.2-0.1c-0.1,0-0.2,0-0.2,0.1s-0.1,0.2-0.1,0.3
			c0,0.1,0,0.2,0.1,0.3c0.1,0.1,0.1,0.1,0.2,0.1c0.1,0,0.2,0,0.2-0.1C29.1,16.3,29.1,16.2,29.1,16.1z"/>
		<path class="st4" d="M30.3,16.5C30.3,16.5,30.2,16.5,30.3,16.5c-0.1,0.1-0.2,0.1-0.3,0.1c-0.1,0-0.1,0-0.2,0
			c-0.1,0-0.1-0.1-0.1-0.1c0,0-0.1-0.1-0.1-0.2c0-0.1,0-0.1,0-0.2c0-0.1,0-0.2,0-0.2c0-0.1,0.1-0.1,0.1-0.2c0,0,0.1-0.1,0.2-0.1
			c0.1,0,0.1,0,0.2,0c0.1,0,0.2,0,0.2,0c0.1,0,0.1,0,0.2,0v1c0,0.2,0,0.3-0.1,0.4C30.3,17,30.1,17,30,17c-0.1,0-0.1,0-0.2,0
			c-0.1,0-0.1,0-0.2,0l0-0.2c0,0,0.1,0,0.1,0c0.1,0,0.1,0,0.2,0c0.1,0,0.2,0,0.2-0.1C30.3,16.7,30.3,16.6,30.3,16.5L30.3,16.5z
			 M30.3,15.7C30.3,15.7,30.2,15.7,30.3,15.7c-0.1,0-0.2,0-0.2,0c-0.1,0-0.2,0-0.2,0.1c-0.1,0.1-0.1,0.2-0.1,0.3c0,0.1,0,0.1,0,0.2
			c0,0,0,0.1,0.1,0.1c0,0,0.1,0.1,0.1,0.1c0,0,0.1,0,0.1,0c0.1,0,0.1,0,0.1,0c0,0,0.1,0,0.1-0.1V15.7z"/>
		<path class="st4" d="M31.3,16.6v-1.4h0.9v0.2h-0.7v0.4h0.6v0.2h-0.6v0.7H31.3z"/>
		<path class="st4" d="M32.5,15.3C32.5,15.3,32.4,15.3,32.5,15.3c-0.1-0.1-0.1-0.1-0.1-0.1c0,0,0-0.1,0-0.1c0,0,0.1,0,0.1,0
			s0.1,0,0.1,0c0,0,0,0.1,0,0.1C32.6,15.2,32.6,15.3,32.5,15.3C32.6,15.3,32.5,15.3,32.5,15.3z M32.6,16.6h-0.2v-1.1h0.2V16.6z"/>
		<path class="st4" d="M33.3,16.6c-0.1,0-0.2,0-0.3-0.1c-0.1,0-0.1-0.1-0.1-0.2V15l0.2,0v1.3c0,0,0,0.1,0,0.1c0,0,0,0,0,0
			c0,0,0,0,0,0c0,0,0,0,0.1,0L33.3,16.6z"/>
		<path class="st4" d="M33.4,16.1c0-0.1,0-0.2,0-0.3c0-0.1,0.1-0.1,0.1-0.2c0,0,0.1-0.1,0.2-0.1c0.1,0,0.1,0,0.2,0
			c0.1,0,0.3,0,0.3,0.1c0.1,0.1,0.1,0.2,0.1,0.4c0,0,0,0,0,0c0,0,0,0,0,0h-0.7c0,0.1,0,0.2,0.1,0.3c0.1,0.1,0.1,0.1,0.3,0.1
			c0.1,0,0.1,0,0.2,0c0,0,0.1,0,0.1,0l0,0.2c0,0-0.1,0-0.1,0c-0.1,0-0.1,0-0.2,0c-0.1,0-0.2,0-0.2,0c-0.1,0-0.1-0.1-0.2-0.1
			c0,0-0.1-0.1-0.1-0.2C33.4,16.2,33.4,16.2,33.4,16.1z M34.2,16c0-0.1,0-0.2-0.1-0.2c0-0.1-0.1-0.1-0.2-0.1c0,0-0.1,0-0.1,0
			c0,0-0.1,0-0.1,0.1c0,0,0,0.1-0.1,0.1c0,0,0,0.1,0,0.1H34.2z"/>
	</g>
	<g>
		<path class="st4" d="M16.8,18.6v0.1h-0.7v-1.1h0.2v1H16.8z"/>
		<path class="st4" d="M17.7,18.3c0,0.1,0,0.1,0,0.2c0,0.1,0,0.1-0.1,0.1c0,0-0.1,0.1-0.1,0.1c0,0-0.1,0-0.2,0s-0.1,0-0.2,0
			c0,0-0.1,0-0.1-0.1c0,0-0.1-0.1-0.1-0.1c0-0.1,0-0.1,0-0.2c0-0.1,0-0.1,0-0.2c0-0.1,0-0.1,0.1-0.1c0,0,0.1-0.1,0.1-0.1
			c0,0,0.1,0,0.2,0s0.1,0,0.2,0c0,0,0.1,0,0.1,0.1s0.1,0.1,0.1,0.1C17.7,18.2,17.7,18.2,17.7,18.3z M17.5,18.3c0-0.1,0-0.2-0.1-0.2
			S17.4,18,17.3,18s-0.1,0-0.2,0.1s-0.1,0.1-0.1,0.2c0,0.1,0,0.2,0.1,0.2c0,0.1,0.1,0.1,0.2,0.1s0.1,0,0.2-0.1
			C17.5,18.5,17.5,18.4,17.5,18.3z"/>
		<path class="st4" d="M18.2,17.9C18.2,17.9,18.2,17.9,18.2,17.9C18.2,17.9,18.2,17.9,18.2,17.9c0.1,0,0.1,0,0.1,0c0,0,0,0,0,0
			l0,0.1c0,0,0,0-0.1,0c0,0-0.1,0-0.1,0c0,0-0.1,0-0.1,0c0,0,0,0-0.1,0v0.7h-0.1v-0.8c0,0,0.1,0,0.1,0C18,17.9,18.1,17.9,18.2,17.9z
			"/>
		<path class="st4" d="M18.4,18.3c0-0.1,0-0.1,0-0.2c0-0.1,0-0.1,0.1-0.1c0,0,0.1-0.1,0.1-0.1c0,0,0.1,0,0.1,0c0.1,0,0.2,0,0.3,0.1
			c0.1,0.1,0.1,0.2,0.1,0.3c0,0,0,0,0,0s0,0,0,0h-0.6c0,0.1,0,0.1,0.1,0.2c0,0,0.1,0.1,0.2,0.1c0.1,0,0.1,0,0.1,0c0,0,0.1,0,0.1,0
			l0,0.1c0,0,0,0-0.1,0c0,0-0.1,0-0.1,0c-0.1,0-0.1,0-0.2,0c-0.1,0-0.1-0.1-0.1-0.1s-0.1-0.1-0.1-0.1C18.4,18.4,18.4,18.4,18.4,18.3
			z M19,18.2c0-0.1,0-0.1,0-0.2c0,0-0.1-0.1-0.1-0.1c0,0-0.1,0-0.1,0c0,0,0,0-0.1,0.1c0,0,0,0,0,0.1c0,0,0,0.1,0,0.1H19z"/>
		<path class="st4" d="M19.3,17.9c0,0,0.1,0,0.1,0c0.1,0,0.1,0,0.2,0c0.1,0,0.1,0,0.1,0c0,0,0.1,0,0.1,0.1c0,0,0,0,0,0
			c0,0,0,0,0.1,0c0,0,0,0,0.1,0c0,0,0.1,0,0.1,0c0.1,0,0.1,0,0.2,0c0,0,0.1,0,0.1,0.1c0,0,0,0.1,0,0.1c0,0,0,0.1,0,0.2v0.5h-0.1
			v-0.4c0,0,0-0.1,0-0.1c0,0,0-0.1,0-0.1c0,0,0,0-0.1-0.1c0,0-0.1,0-0.1,0c0,0-0.1,0-0.1,0c0,0-0.1,0-0.1,0c0,0,0,0.1,0,0.1
			c0,0,0,0.1,0,0.1v0.5h-0.1v-0.4c0,0,0-0.1,0-0.1c0,0,0-0.1,0-0.1c0,0,0,0-0.1-0.1c0,0-0.1,0-0.1,0c0,0,0,0,0,0c0,0,0,0,0,0
			c0,0,0,0,0,0c0,0,0,0,0,0v0.7h-0.1V17.9z"/>
		<path class="st4" d="M21.1,17.6h0.2v1.1h-0.2V17.6z"/>
		<path class="st4" d="M22.2,18.3c0,0.1,0,0.1,0,0.2c0,0.1,0,0.1-0.1,0.1c0,0-0.1,0.1-0.1,0.1c0,0-0.1,0-0.2,0c0,0-0.1,0-0.1,0
			c0,0-0.1,0-0.1,0V19h-0.1v-1.1c0,0,0.1,0,0.1,0c0.1,0,0.1,0,0.2,0c0.1,0,0.1,0,0.2,0c0.1,0,0.1,0,0.1,0.1s0.1,0.1,0.1,0.1
			S22.2,18.2,22.2,18.3z M22,18.3c0-0.1,0-0.2-0.1-0.2c0-0.1-0.1-0.1-0.2-0.1c0,0-0.1,0-0.1,0c0,0,0,0-0.1,0v0.5c0,0,0,0,0.1,0
			s0.1,0,0.1,0c0,0,0.1,0,0.1,0c0,0,0.1,0,0.1-0.1c0,0,0-0.1,0-0.1C22,18.4,22,18.3,22,18.3z"/>
		<path class="st4" d="M22.6,18.6c0.1,0,0.1,0,0.1,0c0,0,0,0,0-0.1c0,0,0-0.1,0-0.1c0,0-0.1,0-0.1-0.1c0,0-0.1,0-0.1,0
			c0,0-0.1,0-0.1,0c0,0,0,0-0.1-0.1c0,0,0-0.1,0-0.1c0-0.1,0-0.1,0.1-0.2c0.1,0,0.1-0.1,0.2-0.1c0,0,0,0,0.1,0c0,0,0,0,0.1,0
			s0,0,0.1,0c0,0,0,0,0,0l0,0.1c0,0,0,0-0.1,0c0,0-0.1,0-0.1,0c0,0-0.1,0-0.1,0c0,0,0,0,0,0.1c0,0,0,0,0,0c0,0,0,0,0,0
			c0,0,0,0,0.1,0c0,0,0,0,0.1,0c0,0,0.1,0,0.1,0c0,0,0.1,0,0.1,0c0,0,0,0,0.1,0.1c0,0,0,0.1,0,0.1c0,0.1,0,0.1-0.1,0.2
			c-0.1,0-0.1,0.1-0.2,0.1c-0.1,0-0.1,0-0.2,0c0,0-0.1,0-0.1,0l0-0.1c0,0,0,0,0.1,0C22.5,18.6,22.5,18.6,22.6,18.6z"/>
		<path class="st4" d="M23.7,18.7c0,0-0.1,0-0.1,0c-0.1,0-0.1,0-0.2,0c-0.1,0-0.1,0-0.2,0c0,0-0.1,0-0.1-0.1c0,0,0-0.1-0.1-0.1
			c0,0,0-0.1,0-0.2v-0.5h0.1v0.4c0,0.1,0,0.2,0,0.2c0,0,0.1,0.1,0.2,0.1c0,0,0,0,0,0c0,0,0,0,0,0c0,0,0,0,0,0s0,0,0,0v-0.7h0.1V18.7
			z"/>
		<path class="st4" d="M24,17.9c0,0,0.1,0,0.1,0c0.1,0,0.1,0,0.2,0c0.1,0,0.1,0,0.1,0c0,0,0.1,0,0.1,0.1c0,0,0,0,0,0c0,0,0,0,0.1,0
			c0,0,0,0,0.1,0c0,0,0.1,0,0.1,0c0.1,0,0.1,0,0.2,0c0,0,0.1,0,0.1,0.1c0,0,0,0.1,0,0.1c0,0,0,0.1,0,0.2v0.5h-0.1v-0.4
			c0,0,0-0.1,0-0.1c0,0,0-0.1,0-0.1c0,0,0,0-0.1-0.1c0,0-0.1,0-0.1,0c0,0-0.1,0-0.1,0c0,0-0.1,0-0.1,0c0,0,0,0.1,0,0.1
			c0,0,0,0.1,0,0.1v0.5h-0.1v-0.4c0,0,0-0.1,0-0.1c0,0,0-0.1,0-0.1c0,0,0,0-0.1-0.1c0,0-0.1,0-0.1,0c0,0,0,0,0,0c0,0,0,0,0,0
			s0,0,0,0c0,0,0,0,0,0v0.7H24V17.9z"/>
		<path class="st4" d="M26.6,18.2c0,0.1,0,0.2,0,0.2c0,0.1-0.1,0.1-0.1,0.2c-0.1,0-0.1,0.1-0.2,0.1c-0.1,0-0.2,0-0.2,0
			c0,0-0.1,0-0.1,0c-0.1,0-0.1,0-0.1,0v-1c0,0,0.1,0,0.1,0c0.1,0,0.1,0,0.1,0c0.1,0,0.2,0,0.2,0c0.1,0,0.1,0.1,0.2,0.1
			c0.1,0,0.1,0.1,0.1,0.2C26.6,18,26.6,18.1,26.6,18.2z M26,18.6c0.1,0,0.2,0,0.3-0.1c0.1-0.1,0.1-0.2,0.1-0.3c0-0.1,0-0.2-0.1-0.3
			c-0.1-0.1-0.2-0.1-0.3-0.1c0,0-0.1,0-0.1,0c0,0,0,0-0.1,0v0.8C25.9,18.6,25.9,18.6,26,18.6C25.9,18.6,25.9,18.6,26,18.6z"/>
		<path class="st4" d="M27.5,18.3c0,0.1,0,0.1,0,0.2c0,0.1,0,0.1-0.1,0.1c0,0-0.1,0.1-0.1,0.1c0,0-0.1,0-0.2,0s-0.1,0-0.2,0
			c0,0-0.1,0-0.1-0.1c0,0-0.1-0.1-0.1-0.1c0-0.1,0-0.1,0-0.2c0-0.1,0-0.1,0-0.2c0-0.1,0-0.1,0.1-0.1c0,0,0.1-0.1,0.1-0.1
			c0,0,0.1,0,0.2,0s0.1,0,0.2,0c0,0,0.1,0,0.1,0.1s0.1,0.1,0.1,0.1C27.5,18.2,27.5,18.2,27.5,18.3z M27.4,18.3c0-0.1,0-0.2-0.1-0.2
			S27.2,18,27.1,18S27,18,27,18.1c0,0.1-0.1,0.1-0.1,0.2c0,0.1,0,0.2,0.1,0.2c0,0.1,0.1,0.1,0.2,0.1s0.1,0,0.2-0.1
			C27.3,18.5,27.4,18.4,27.4,18.3z"/>
		<path class="st4" d="M28,18.7c-0.1,0-0.2,0-0.2-0.1c0,0-0.1-0.1-0.1-0.2v-1l0.1,0v1c0,0,0,0,0,0.1c0,0,0,0,0,0c0,0,0,0,0,0
			c0,0,0,0,0.1,0L28,18.7z"/>
		<path class="st4" d="M28.9,18.3c0,0.1,0,0.1,0,0.2c0,0.1,0,0.1-0.1,0.1c0,0-0.1,0.1-0.1,0.1c0,0-0.1,0-0.2,0c-0.1,0-0.1,0-0.2,0
			c0,0-0.1,0-0.1-0.1c0,0-0.1-0.1-0.1-0.1c0-0.1,0-0.1,0-0.2c0-0.1,0-0.1,0-0.2c0-0.1,0-0.1,0.1-0.1c0,0,0.1-0.1,0.1-0.1
			c0,0,0.1,0,0.2,0c0.1,0,0.1,0,0.2,0c0,0,0.1,0,0.1,0.1s0.1,0.1,0.1,0.1C28.8,18.2,28.9,18.2,28.9,18.3z M28.7,18.3
			c0-0.1,0-0.2-0.1-0.2S28.5,18,28.5,18c-0.1,0-0.1,0-0.2,0.1s-0.1,0.1-0.1,0.2c0,0.1,0,0.2,0.1,0.2c0,0.1,0.1,0.1,0.2,0.1
			c0.1,0,0.1,0,0.2-0.1C28.7,18.5,28.7,18.4,28.7,18.3z"/>
		<path class="st4" d="M29.4,17.9C29.4,17.9,29.4,17.9,29.4,17.9C29.4,17.9,29.4,17.9,29.4,17.9c0.1,0,0.1,0,0.1,0c0,0,0,0,0,0
			l0,0.1c0,0,0,0-0.1,0c0,0-0.1,0-0.1,0c0,0-0.1,0-0.1,0c0,0,0,0-0.1,0v0.7h-0.1v-0.8c0,0,0.1,0,0.1,0
			C29.2,17.9,29.3,17.9,29.4,17.9z"/>
		<path class="st4" d="M30.3,18.6c0.2,0,0.2-0.1,0.2-0.2c0,0,0-0.1,0-0.1s0,0-0.1-0.1c0,0-0.1,0-0.1,0c0,0-0.1,0-0.1,0
			c0,0-0.1,0-0.1,0c0,0-0.1,0-0.1-0.1c0,0,0-0.1-0.1-0.1c0,0,0-0.1,0-0.1c0-0.1,0-0.2,0.1-0.2c0.1-0.1,0.2-0.1,0.3-0.1
			c0.1,0,0.1,0,0.2,0c0.1,0,0.1,0,0.1,0l0,0.1c0,0-0.1,0-0.1,0c0,0-0.1,0-0.2,0c0,0-0.1,0-0.1,0c0,0,0,0-0.1,0c0,0,0,0,0,0
			c0,0,0,0,0,0.1c0,0,0,0.1,0,0.1c0,0,0,0,0,0.1c0,0,0,0,0.1,0c0,0,0.1,0,0.1,0c0,0,0.1,0,0.1,0.1c0,0,0.1,0,0.1,0.1
			s0.1,0.1,0.1,0.1c0,0,0,0.1,0,0.1c0,0.1,0,0.2-0.1,0.2s-0.2,0.1-0.3,0.1c0,0-0.1,0-0.1,0c0,0-0.1,0-0.1,0c0,0-0.1,0-0.1,0
			c0,0,0,0,0,0l0-0.1c0,0,0.1,0,0.1,0C30.2,18.6,30.2,18.6,30.3,18.6z"/>
		<path class="st4" d="M30.9,17.8C30.9,17.8,30.9,17.7,30.9,17.8C30.8,17.7,30.8,17.7,30.9,17.8c-0.1-0.1-0.1-0.1-0.1-0.2
			c0,0,0,0,0.1,0c0,0,0,0,0.1,0C31,17.6,31,17.6,30.9,17.8C31,17.7,31,17.7,30.9,17.8C31,17.7,31,17.8,30.9,17.8z M31,18.7h-0.1
			v-0.8H31V18.7z"/>
		<path class="st4" d="M31.4,17.9h0.3V18h-0.3v0.4c0,0,0,0.1,0,0.1c0,0,0,0,0,0.1c0,0,0,0,0,0c0,0,0,0,0.1,0c0,0,0.1,0,0.1,0
			c0,0,0,0,0.1,0l0,0.1c0,0,0,0-0.1,0c0,0-0.1,0-0.1,0c-0.1,0-0.1,0-0.1,0c0,0-0.1,0-0.1-0.1c0,0,0-0.1,0-0.1c0,0,0-0.1,0-0.1v-0.7
			l0.1,0V17.9z"/>
		<path class="st4" d="M33,18.7c0,0,0-0.1-0.1-0.1c0,0,0-0.1,0-0.1h-0.5l-0.1,0.3h-0.2c0-0.1,0.1-0.2,0.1-0.3c0-0.1,0.1-0.2,0.1-0.3
			c0-0.1,0.1-0.2,0.1-0.3c0-0.1,0.1-0.2,0.1-0.2h0.1c0,0.1,0.1,0.2,0.1,0.2c0,0.1,0.1,0.2,0.1,0.3c0,0.1,0.1,0.2,0.1,0.3
			c0,0.1,0.1,0.2,0.1,0.3H33z M32.8,18.3c0-0.1-0.1-0.2-0.1-0.3c0-0.1-0.1-0.2-0.1-0.2c0,0.1-0.1,0.2-0.1,0.2c0,0.1-0.1,0.2-0.1,0.3
			H32.8z"/>
		<path class="st4" d="M33.3,17.9c0,0,0.1,0,0.1,0c0.1,0,0.1,0,0.2,0c0.1,0,0.1,0,0.1,0c0,0,0.1,0,0.1,0.1c0,0,0,0,0,0
			c0,0,0,0,0.1,0c0,0,0,0,0.1,0c0,0,0.1,0,0.1,0c0.1,0,0.1,0,0.2,0c0,0,0.1,0,0.1,0.1c0,0,0,0.1,0,0.1c0,0,0,0.1,0,0.2v0.5h-0.1
			v-0.4c0,0,0-0.1,0-0.1c0,0,0-0.1,0-0.1c0,0,0,0-0.1-0.1c0,0-0.1,0-0.1,0c0,0-0.1,0-0.1,0c0,0-0.1,0-0.1,0c0,0,0,0.1,0,0.1
			c0,0,0,0.1,0,0.1v0.5h-0.1v-0.4c0,0,0-0.1,0-0.1c0,0,0-0.1,0-0.1c0,0,0,0-0.1-0.1c0,0-0.1,0-0.1,0c0,0,0,0,0,0c0,0,0,0,0,0
			c0,0,0,0,0,0c0,0,0,0,0,0v0.7h-0.1V17.9z"/>
		<path class="st4" d="M34.6,18.3c0-0.1,0-0.1,0-0.2c0-0.1,0-0.1,0.1-0.1c0,0,0.1-0.1,0.1-0.1c0,0,0.1,0,0.1,0c0.1,0,0.2,0,0.3,0.1
			c0.1,0.1,0.1,0.2,0.1,0.3c0,0,0,0,0,0s0,0,0,0h-0.6c0,0.1,0,0.1,0.1,0.2c0,0,0.1,0.1,0.2,0.1c0.1,0,0.1,0,0.1,0c0,0,0.1,0,0.1,0
			l0,0.1c0,0,0,0-0.1,0c0,0-0.1,0-0.1,0c-0.1,0-0.1,0-0.2,0c-0.1,0-0.1-0.1-0.1-0.1c0,0-0.1-0.1-0.1-0.1
			C34.6,18.4,34.6,18.4,34.6,18.3z M35.1,18.2c0-0.1,0-0.1,0-0.2c0,0-0.1-0.1-0.1-0.1c0,0-0.1,0-0.1,0c0,0,0,0-0.1,0.1
			c0,0,0,0,0,0.1c0,0,0,0.1,0,0.1H35.1z"/>
		<path class="st4" d="M35.6,17.9h0.3V18h-0.3v0.4c0,0,0,0.1,0,0.1c0,0,0,0,0,0.1c0,0,0,0,0,0c0,0,0,0,0.1,0c0,0,0.1,0,0.1,0
			c0,0,0,0,0.1,0l0,0.1c0,0,0,0-0.1,0c0,0-0.1,0-0.1,0c-0.1,0-0.1,0-0.1,0c0,0-0.1,0-0.1-0.1c0,0,0-0.1,0-0.1c0,0,0-0.1,0-0.1v-0.7
			l0.1,0V17.9z"/>
	</g>
</g>
<g>
	<g>
		<path class="st5" d="M47,24.5c0.3,0,0.5,0.2,0.5,0.5v38c0,0.3-0.2,0.5-0.5,0.5H5c-0.3,0-0.5-0.2-0.5-0.5V25c0-0.3,0.2-0.5,0.5-0.5
			H47 M47,24H5c-0.6,0-1,0.4-1,1v38c0,0.6,0.4,1,1,1h42c0.6,0,1-0.4,1-1V25C48,24.4,47.6,24,47,24L47,24z"/>
	</g>
	<line class="st6" x1="4" y1="29" x2="48" y2="29"/>
	<line class="st6" x1="4" y1="34" x2="48" y2="34"/>
	<line class="st6" x1="4" y1="39" x2="48" y2="39"/>
	<line class="st6" x1="4" y1="44" x2="48" y2="44"/>
	<line class="st6" x1="4" y1="49" x2="48" y2="49"/>
	<line class="st6" x1="4" y1="54" x2="48" y2="54"/>
	<line class="st6" x1="4" y1="59" x2="48" y2="59"/>
	<line class="st6" x1="26" y1="24" x2="26" y2="64"/>
</g>
</svg>
